<mxfile host="app.diagrams.net" agent="Mozilla/5.0 (Windows NT 10.0; Win64; x64) AppleWebKit/537.36 (KHTML, like Gecko) Chrome/136.0.0.0 Safari/537.36" version="27.0.6">
  <diagram name="Page-1" id="1pIzPmylpXnEqSKhh1PY">
    <mxGraphModel dx="1186" dy="977" grid="0" gridSize="10" guides="1" tooltips="1" connect="1" arrows="1" fold="1" page="0" pageScale="1" pageWidth="850" pageHeight="1100" math="0" shadow="0">
      <root>
        <mxCell id="0" />
        <mxCell id="1" parent="0" />
        <mxCell id="TShjFeLuT9sX3fGPOV5T-2" value="" style="rounded=0;whiteSpace=wrap;html=1;" vertex="1" parent="1">
          <mxGeometry x="-26" y="-62" width="221" height="492" as="geometry" />
        </mxCell>
        <mxCell id="TShjFeLuT9sX3fGPOV5T-3" value="Actor" style="shape=umlActor;verticalLabelPosition=bottom;verticalAlign=top;html=1;outlineConnect=0;" vertex="1" parent="1">
          <mxGeometry x="-186" y="103" width="30" height="60" as="geometry" />
        </mxCell>
        <mxCell id="TShjFeLuT9sX3fGPOV5T-9" value="&lt;b&gt;Register&lt;/b&gt;" style="ellipse;whiteSpace=wrap;html=1;" vertex="1" parent="1">
          <mxGeometry x="12" y="-31" width="124" height="50" as="geometry" />
        </mxCell>
        <mxCell id="TShjFeLuT9sX3fGPOV5T-10" value="&lt;b&gt;Login&lt;/b&gt;" style="ellipse;whiteSpace=wrap;html=1;" vertex="1" parent="1">
          <mxGeometry x="8" y="40" width="124" height="50" as="geometry" />
        </mxCell>
        <mxCell id="TShjFeLuT9sX3fGPOV5T-11" value="&lt;b&gt;View soil results&lt;/b&gt;" style="ellipse;whiteSpace=wrap;html=1;" vertex="1" parent="1">
          <mxGeometry x="3" y="118" width="124" height="50" as="geometry" />
        </mxCell>
        <mxCell id="TShjFeLuT9sX3fGPOV5T-13" value="&lt;b&gt;Logout&lt;/b&gt;" style="ellipse;whiteSpace=wrap;html=1;" vertex="1" parent="1">
          <mxGeometry x="8" y="275" width="124" height="50" as="geometry" />
        </mxCell>
        <mxCell id="TShjFeLuT9sX3fGPOV5T-14" value="&lt;font face=&quot;Times New Roman&quot;&gt;&lt;b&gt;Mobile App&lt;/b&gt;&lt;/font&gt;" style="text;html=1;align=center;verticalAlign=middle;resizable=0;points=[];autosize=1;strokeColor=none;fillColor=none;fontSize=16;" vertex="1" parent="1">
          <mxGeometry x="21" y="-100" width="98" height="31" as="geometry" />
        </mxCell>
        <mxCell id="TShjFeLuT9sX3fGPOV5T-15" value="&lt;b&gt;&lt;font style=&quot;font-size: 15px;&quot; face=&quot;Times New Roman&quot;&gt;Manage System&lt;/font&gt;&lt;/b&gt;" style="ellipse;whiteSpace=wrap;html=1;" vertex="1" parent="1">
          <mxGeometry x="12" y="350" width="124" height="50" as="geometry" />
        </mxCell>
        <mxCell id="TShjFeLuT9sX3fGPOV5T-22" value="&lt;font face=&quot;Times New Roman&quot;&gt;Farmer&lt;/font&gt;" style="text;html=1;align=center;verticalAlign=middle;resizable=0;points=[];autosize=1;strokeColor=none;fillColor=none;fontSize=16;" vertex="1" parent="1">
          <mxGeometry x="-216.5" y="54.5" width="64" height="31" as="geometry" />
        </mxCell>
        <mxCell id="TShjFeLuT9sX3fGPOV5T-23" value="&lt;font face=&quot;Times New Roman&quot;&gt;Admin&lt;/font&gt;" style="text;html=1;align=center;verticalAlign=middle;resizable=0;points=[];autosize=1;strokeColor=none;fillColor=none;fontSize=16;" vertex="1" parent="1">
          <mxGeometry x="300.5" y="53.5" width="62" height="31" as="geometry" />
        </mxCell>
        <mxCell id="TShjFeLuT9sX3fGPOV5T-25" value="" style="endArrow=classic;html=1;rounded=0;fontSize=12;startSize=8;endSize=8;curved=1;" edge="1" parent="1" target="TShjFeLuT9sX3fGPOV5T-9">
          <mxGeometry width="50" height="50" relative="1" as="geometry">
            <mxPoint x="-143" y="122" as="sourcePoint" />
            <mxPoint x="-93" y="72" as="targetPoint" />
          </mxGeometry>
        </mxCell>
        <mxCell id="TShjFeLuT9sX3fGPOV5T-26" value="" style="endArrow=classic;html=1;rounded=0;fontSize=12;startSize=8;endSize=8;curved=1;" edge="1" parent="1">
          <mxGeometry width="50" height="50" relative="1" as="geometry">
            <mxPoint x="-146" y="133" as="sourcePoint" />
            <mxPoint x="15" y="78" as="targetPoint" />
          </mxGeometry>
        </mxCell>
        <mxCell id="TShjFeLuT9sX3fGPOV5T-27" value="" style="endArrow=classic;html=1;rounded=0;fontSize=12;startSize=8;endSize=8;curved=1;" edge="1" parent="1" target="TShjFeLuT9sX3fGPOV5T-11">
          <mxGeometry width="50" height="50" relative="1" as="geometry">
            <mxPoint x="-153" y="141" as="sourcePoint" />
            <mxPoint x="-2" y="149" as="targetPoint" />
          </mxGeometry>
        </mxCell>
        <mxCell id="TShjFeLuT9sX3fGPOV5T-28" value="" style="endArrow=classic;html=1;rounded=0;fontSize=12;startSize=8;endSize=8;curved=1;entryX=0;entryY=0.5;entryDx=0;entryDy=0;" edge="1" parent="1" target="TShjFeLuT9sX3fGPOV5T-12">
          <mxGeometry width="50" height="50" relative="1" as="geometry">
            <mxPoint x="-152" y="149" as="sourcePoint" />
            <mxPoint x="5" y="208" as="targetPoint" />
          </mxGeometry>
        </mxCell>
        <mxCell id="TShjFeLuT9sX3fGPOV5T-29" value="" style="endArrow=classic;html=1;rounded=0;fontSize=12;startSize=8;endSize=8;curved=1;" edge="1" parent="1" source="TShjFeLuT9sX3fGPOV5T-12">
          <mxGeometry width="50" height="50" relative="1" as="geometry">
            <mxPoint x="-69" y="208" as="sourcePoint" />
            <mxPoint x="87" y="209" as="targetPoint" />
          </mxGeometry>
        </mxCell>
        <mxCell id="TShjFeLuT9sX3fGPOV5T-30" value="" style="endArrow=classic;html=1;rounded=0;fontSize=12;startSize=8;endSize=8;curved=1;entryX=0;entryY=0.5;entryDx=0;entryDy=0;" edge="1" parent="1" source="TShjFeLuT9sX3fGPOV5T-3" target="TShjFeLuT9sX3fGPOV5T-13">
          <mxGeometry width="50" height="50" relative="1" as="geometry">
            <mxPoint x="-147" y="182.01" as="sourcePoint" />
            <mxPoint x="-65.54812237820215" y="185.9971548486194" as="targetPoint" />
          </mxGeometry>
        </mxCell>
        <mxCell id="TShjFeLuT9sX3fGPOV5T-12" value="&lt;b&gt;View soil recommendation&lt;/b&gt;" style="ellipse;whiteSpace=wrap;html=1;" vertex="1" parent="1">
          <mxGeometry x="12" y="190" width="124" height="50" as="geometry" />
        </mxCell>
        <mxCell id="TShjFeLuT9sX3fGPOV5T-31" value="" style="endArrow=classic;html=1;rounded=0;fontSize=12;startSize=8;endSize=8;curved=1;entryX=1;entryY=0.5;entryDx=0;entryDy=0;" edge="1" parent="1" target="TShjFeLuT9sX3fGPOV5T-15">
          <mxGeometry width="50" height="50" relative="1" as="geometry">
            <mxPoint x="308" y="135" as="sourcePoint" />
            <mxPoint x="433" y="267" as="targetPoint" />
          </mxGeometry>
        </mxCell>
        <mxCell id="TShjFeLuT9sX3fGPOV5T-32" value="" style="endArrow=classic;html=1;rounded=0;fontSize=12;startSize=8;endSize=8;curved=1;entryX=0.94;entryY=0.65;entryDx=0;entryDy=0;entryPerimeter=0;" edge="1" parent="1" target="TShjFeLuT9sX3fGPOV5T-10">
          <mxGeometry width="50" height="50" relative="1" as="geometry">
            <mxPoint x="296" y="114" as="sourcePoint" />
            <mxPoint x="491" y="262" as="targetPoint" />
          </mxGeometry>
        </mxCell>
        <mxCell id="TShjFeLuT9sX3fGPOV5T-33" value="" style="endArrow=classic;html=1;rounded=0;fontSize=12;startSize=8;endSize=8;curved=1;entryX=1;entryY=0.5;entryDx=0;entryDy=0;" edge="1" parent="1" target="TShjFeLuT9sX3fGPOV5T-13">
          <mxGeometry width="50" height="50" relative="1" as="geometry">
            <mxPoint x="282" y="134" as="sourcePoint" />
            <mxPoint x="509" y="276" as="targetPoint" />
          </mxGeometry>
        </mxCell>
        <mxCell id="TShjFeLuT9sX3fGPOV5T-34" value="Actor" style="shape=umlActor;verticalLabelPosition=bottom;verticalAlign=top;html=1;outlineConnect=0;" vertex="1" parent="1">
          <mxGeometry x="321" y="101" width="30" height="60" as="geometry" />
        </mxCell>
      </root>
    </mxGraphModel>
  </diagram>
</mxfile>
